<?xml version="1.0" standalone="no"?>
<!DOCTYPE svg PUBLIC "-//W3C//DTD SVG 20010904//EN"
 "http://www.w3.org/TR/2001/REC-SVG-20010904/DTD/svg10.dtd">
<svg version="1.0" xmlns="http://www.w3.org/2000/svg"
 width="400.000000pt" height="400.000000pt" viewBox="0 0 400.000000 400.000000"
 preserveAspectRatio="xMidYMid meet">
<metadata>
Created by potrace 1.14, written by Peter Selinger 2001-2017
</metadata>
<g transform="translate(0.000000,400.000000) scale(0.100000,-0.100000)"
fill="#000000" stroke="none">
<path d="M2505 2649 c-357 -27 -654 -239 -739 -529 -9 -30 -26 -136 -37 -234
-11 -98 -24 -187 -30 -197 -27 -51 -168 -122 -329 -164 -140 -38 -211 -37
-368 4 -214 55 -280 89 -323 164 -24 42 -24 42 -27 395 -2 234 0 352 7 352 6
0 63 -43 128 -95 65 -53 122 -93 128 -91 134 61 134 61 280 61 146 0 145 0
280 -61 6 -2 78 51 160 118 141 116 150 126 153 162 4 49 -19 76 -66 76 -28 0
-52 -15 -144 -92 l-110 -91 -71 19 c-104 27 -328 26 -410 -3 l-58 -20 -92 73
c-114 91 -147 108 -203 101 -57 -6 -99 -38 -119 -90 -14 -38 -16 -89 -13 -418
3 -364 4 -376 27 -432 30 -75 105 -152 191 -194 36 -17 138 -50 228 -73 210
-53 284 -55 456 -10 185 48 287 95 368 168 66 60 79 96 104 306 13 104 29 205
35 225 44 135 159 271 284 333 155 79 332 109 513 89 197 -23 334 -82 447
-196 117 -117 148 -201 180 -485 14 -132 18 -147 41 -167 27 -25 54 -29 85
-12 36 19 38 49 18 225 -24 215 -26 226 -56 304 -126 323 -485 511 -918 479z"/>
<path d="M2304 2196 c-43 -19 -64 -53 -64 -104 0 -37 6 -50 34 -78 26 -26 42
-34 70 -34 52 0 90 23 111 67 16 33 16 41 4 77 -15 44 -67 86 -103 86 -12 -1
-35 -7 -52 -14z"/>
<path d="M2814 2200 c-34 -13 -74 -69 -74 -101 0 -68 49 -119 115 -119 121 0
158 163 49 215 -35 17 -58 18 -90 5z"/>
<path d="M844 2026 c-29 -29 -34 -41 -34 -79 0 -37 6 -51 30 -75 40 -41 80
-48 128 -25 114 55 76 213 -51 213 -31 0 -46 -7 -73 -34z"/>
<path d="M1408 2043 c-51 -32 -66 -114 -30 -162 27 -36 85 -55 128 -41 48 16
74 54 74 107 0 38 -5 50 -34 79 -27 27 -42 34 -72 34 -22 0 -51 -8 -66 -17z"/>
<path d="M2056 1968 c-20 -19 -28 -41 -41 -113 -8 -49 -15 -127 -15 -172 0
-72 4 -88 33 -144 57 -111 164 -172 302 -173 90 0 161 24 219 75 l46 41 35
-31 c144 -126 371 -112 499 30 77 85 91 176 57 368 -15 83 -23 108 -41 123
-31 25 -66 23 -95 -7 -29 -28 -30 -43 -10 -148 36 -186 2 -267 -125 -297 -59
-14 -125 -2 -171 31 -60 42 -94 180 -48 194 24 8 49 59 41 87 -10 41 -50 58
-136 58 -92 0 -126 -13 -141 -53 -11 -34 8 -77 44 -92 21 -9 22 -14 16 -59 -8
-61 -25 -96 -65 -130 -108 -91 -288 -32 -313 102 -4 18 2 84 13 147 22 127 17
154 -27 174 -35 16 -49 14 -77 -11z"/>
<path d="M1105 1695 c-56 -56 -6 -125 90 -125 99 0 148 68 90 125 -21 22 -33
25 -90 25 -57 0 -69 -3 -90 -25z"/>
</g>
</svg>
